<svg width="33" height="32" viewBox="0 0 33 32" fill="none" xmlns="http://www.w3.org/2000/svg">
<path d="M31.3335 8V2.66667C31.3335 2.31305 31.193 1.97391 30.9429 1.72386C30.6929 1.47381 30.3537 1.33334 30.0001 1.33334H3.33346C2.97983 1.33334 2.64069 1.47381 2.39065 1.72386C2.1406 1.97391 2.00012 2.31305 2.00012 2.66667V8H31.3335Z" fill="#FF7426"/>
<path d="M2.00012 10.6667V29.3333C2.00012 29.687 2.1406 30.0261 2.39065 30.2761C2.64069 30.5262 2.97983 30.6667 3.33346 30.6667H10.0001V10.6667H2.00012Z" fill="#F92D14"/>
<path d="M12.6667 30.6667H30.0001C30.3537 30.6667 30.6928 30.5262 30.9429 30.2761C31.1929 30.0261 31.3334 29.687 31.3334 29.3333V10.6667H12.6667V30.6667Z" fill="#E85D2C" fill-opacity="0.5"/>
</svg>
