<svg width="33" height="32" viewBox="0 0 33 32" fill="none" xmlns="http://www.w3.org/2000/svg">
<g clip-path="url(#clip0_148_13)">
<path d="M24.3333 13.3333H32.3333L28.3333 8L24.3333 13.3333ZM24.3333 18.6667H32.3333L28.3333 24L24.3333 18.6667Z" fill="#C4B5FD"/>
<path d="M1.66659 0H9.66658V32H1.66659C1.31296 32 0.973824 31.8595 0.723775 31.6095C0.473727 31.3594 0.333252 31.0203 0.333252 30.6667V1.33333C0.333252 0.979711 0.473727 0.640572 0.723775 0.390523C0.973824 0.140475 1.31296 0 1.66659 0Z" fill="#E85D2C"/>
<path d="M12.3333 0H20.3333C20.6869 0 21.026 0.140475 21.2761 0.390523C21.5261 0.640572 21.6666 0.979711 21.6666 1.33333V30.6667C21.6666 31.0203 21.5261 31.3594 21.2761 31.6095C21.026 31.8595 20.6869 32 20.3333 32H12.3333V0Z" fill="#E85D2C" fill-opacity="0.5"/>
</g>
<defs>
<clipPath id="clip0_148_13">
<rect width="32" height="32" fill="white" transform="translate(0.333252)"/>
</clipPath>
</defs>
</svg>
